<svg xmlns="http://www.w3.org/2000/svg" width="215" height="296" viewBox="0 0 215 296" fill="none">
    <path fill-rule="evenodd" clip-rule="evenodd"
        d="M56.777 75.6262C56.9585 76.8428 58.0919 77.6818 59.3084 77.5003L79.133 74.5417C80.3495 74.3602 81.1886 73.2268 81.007 72.0103C80.8255 70.7937 79.6921 69.9547 78.4755 70.1363L64.0394 72.2906C72.5585 61.2207 81.4848 51.29 90.5568 42.6719C107.666 26.4185 125.227 14.8957 141.491 9.15092C157.753 3.40687 172.51 3.49896 184.324 10.0964C202.522 20.2577 211.254 44.5517 209.787 76.6968C208.326 108.693 196.746 147.735 175.29 186.16C153.833 224.584 126.671 254.925 100.197 272.954C73.6004 291.067 48.3368 296.378 30.1395 286.216C15.7978 278.208 7.33116 261.453 5.10756 238.865C4.98706 237.641 3.89704 236.747 2.67295 236.867C1.44887 236.988 0.554242 238.078 0.674744 239.302C2.97054 262.622 11.831 281.094 27.9679 290.105C48.4318 301.532 75.6701 295.046 102.704 276.635C129.862 258.14 157.458 227.229 179.179 188.331C200.899 149.434 212.738 109.723 214.236 76.9C215.728 44.226 206.96 17.6343 186.496 6.20734C173.211 -1.21087 157.034 -1.06308 140.008 4.95097C122.983 10.9643 104.9 22.902 87.4889 39.4425C78.1994 48.2674 69.082 58.4202 60.3988 69.7179L58.2239 55.1442C58.0423 53.9277 56.909 53.0887 55.6924 53.2702C54.4759 53.4518 53.6369 54.5851 53.8184 55.8017L56.777 75.6262Z"
        fill="url(#paint0_linear_139_130)" />
    <defs>
        <linearGradient id="paint0_linear_139_130" x1="89.7679" y1="46.8488" x2="33.6182" y2="299.039"
            gradientUnits="userSpaceOnUse">
            <stop offset="0.00312487" stop-color="#531DB3" />
            <stop offset="0.284375" stop-color="#531DB3" stop-opacity="0.8" />
            <stop offset="0.841789" stop-color="#8F8DBE" />
            <stop offset="1" stop-color="#531DB3" />
        </linearGradient>
    </defs>
</svg>