<svg width="240" height="240" viewBox="0 0 240 240" fill="none" xmlns="http://www.w3.org/2000/svg">
    <path
        d="M120 70C113.434 70 106.932 71.2933 100.866 73.806C94.7995 76.3188 89.2876 80.0017 84.6447 84.6447C75.2678 94.0215 70 106.739 70 120C70 133.261 75.2678 145.979 84.6447 155.355C89.2876 159.998 94.7995 163.681 100.866 166.194C106.932 168.707 113.434 170 120 170C133.261 170 145.979 164.732 155.355 155.355C164.732 145.979 170 133.261 170 120C170 113.434 168.707 106.932 166.194 100.866C163.681 94.7995 159.998 89.2876 155.355 84.6447C150.712 80.0017 145.2 76.3188 139.134 73.806C133.068 71.2933 126.566 70 120 70M95.35 151.4C97.5 146.9 110.6 142.5 120 142.5C129.4 142.5 142.5 146.9 144.65 151.4C137.85 156.8 129.3 160 120 160C110.7 160 102.15 156.8 95.35 151.4ZM151.8 144.15C144.65 135.45 127.3 132.5 120 132.5C112.7 132.5 95.35 135.45 88.2 144.15C83.1 137.5 80 129.1 80 120C80 97.95 97.95 80 120 80C142.05 80 160 97.95 160 120C160 129.1 156.9 137.5 151.8 144.15ZM120 90C110.3 90 102.5 97.8 102.5 107.5C102.5 117.2 110.3 125 120 125C129.7 125 137.5 117.2 137.5 107.5C137.5 97.8 129.7 90 120 90ZM120 115C118.011 115 116.103 114.21 114.697 112.803C113.29 111.397 112.5 109.489 112.5 107.5C112.5 105.511 113.29 103.603 114.697 102.197C116.103 100.79 118.011 100 120 100C121.989 100 123.897 100.79 125.303 102.197C126.71 103.603 127.5 105.511 127.5 107.5C127.5 109.489 126.71 111.397 125.303 112.803C123.897 114.21 121.989 115 120 115Z"
        fill="#8F8DBE" />
</svg>