<svg xmlns="http://www.w3.org/2000/svg" width="674" height="588" viewBox="0 0 674 588" fill="none">
    <path opacity="0.8" fill-rule="evenodd" clip-rule="evenodd"
        d="M510.137 586.844L673.127 297.767L514.825 22.8471L172.633 0.381332L0.441298 294.801L169.25 587.968L510.137 586.844ZM90.1437 429.777L172.281 572.423L238.694 458.868L155.539 314.454L90.1437 429.777ZM84.1297 419.333L12.4464 294.842L78.8592 181.287L149.525 304.01L84.1297 419.333ZM155.47 293.526L84.8968 170.963L175.46 16.1156L244.645 136.268L155.47 293.526ZM253.671 131.134L184.834 11.5882L365.396 23.4425L430.058 135.74L253.671 131.134ZM436.13 146.286L259.743 141.68L344.32 288.563L518.397 290.741L518.845 289.935L436.13 146.286ZM442.222 136.058L377.848 24.26L508.599 32.8442L569.951 139.393L442.222 136.058ZM576.023 149.938L448.295 146.603L530.777 289.849L530.198 290.888L658.106 292.489L576.023 149.938ZM250.659 146.712L161.484 303.97L244.731 448.545L335.294 293.697L250.659 146.712ZM254.519 452.376L344.253 298.946L512.657 301.053L428.743 451.802L254.519 452.376ZM440.648 451.762L524.458 301.201L658.326 302.876L574.629 451.32L440.648 451.762ZM568.763 461.723L434.858 462.165L370.98 576.919L504.06 576.48L568.763 461.723ZM359.074 576.958L422.952 462.204L248.435 462.78L181.314 577.545L359.074 576.958Z"
        fill="url(#paint0_linear_0_23)" />
    <defs>
        <linearGradient id="paint0_linear_0_23" x1="678.573" y1="290.652" x2="-11.6996" y2="280.986"
            gradientUnits="userSpaceOnUse">
            <stop stop-color="#96F551" />
            <stop offset="1" stop-color="#222222" />
        </linearGradient>
    </defs>
</svg>