<svg width="24" height="24" viewBox="0 0 30 30" fill="none" xmlns="http://www.w3.org/2000/svg">
    <path
        d="M15 19.5C16.215 19.5 17.25 19.05 18.165 18.165C19.05 17.25 19.5 16.215 19.5 15C19.5 13.785 19.05 12.75 18.165 11.835C17.25 10.95 16.215 10.5 15 10.5C13.785 10.5 12.75 10.95 11.835 11.835C10.95 12.75 10.5 13.785 10.5 15C10.5 16.215 10.95 17.25 11.835 18.165C12.75 19.05 13.785 19.5 15 19.5ZM15 0C19.125 0 22.65 1.5 25.575 4.425C28.5 7.35 30 10.875 30 15V17.175C30 18.675 29.475 19.95 28.5 21C27.45 22.005 26.25 22.5 24.75 22.5C22.95 22.5 21.465 21.75 20.34 20.25C18.84 21.75 17.07 22.5 15 22.5C12.945 22.5 11.175 21.75 9.69 20.31C8.25 18.825 7.5 17.07 7.5 15C7.5 12.945 8.25 11.175 9.69 9.69C11.175 8.25 12.945 7.5 15 7.5C17.07 7.5 18.825 8.25 20.31 9.69C21.75 11.175 22.5 12.945 22.5 15V17.175C22.5 17.79 22.74 18.33 23.19 18.795C23.64 19.26 24.165 19.5 24.75 19.5C25.38 19.5 25.905 19.26 26.355 18.795C26.805 18.33 27 17.79 27 17.175V15C27 11.715 25.845 8.895 23.475 6.525C21.105 4.155 18.285 3 15 3C11.715 3 8.895 4.155 6.525 6.525C4.155 8.895 3 11.715 3 15C3 18.285 4.155 21.105 6.525 23.475C8.895 25.845 11.715 27 15 27H22.5V30H15C10.875 30 7.35 28.5 4.425 25.575C1.5 22.65 0 19.125 0 15C0 10.875 1.5 7.35 4.425 4.425C7.35 1.5 10.875 0 15 0Z"
        fill="#531DB3" />
</svg>